<svg xmlns="http://www.w3.org/2000/svg" width="1280" height="720" viewBox="0 0 1280 720">
  <rect width="1280" height="720" fill="#12172d"/>
  <rect y="540" width="1280" height="180" fill="#1d243d"/>
  <rect x="60" y="240" width="180" height="300" fill="#222b4a"/>
  <rect x="270" y="180" width="220" height="360" fill="#1b2340"/>
  <rect x="520" y="260" width="190" height="280" fill="#242e4f"/>
  <rect x="740" y="150" width="240" height="390" fill="#1a2240"/>
  <rect x="1010" y="220" width="190" height="320" fill="#202949"/>
  <g fill="#ffd47a">
    <rect x="90" y="280" width="16" height="16"/><rect x="130" y="280" width="16" height="16"/><rect x="170" y="280" width="16" height="16"/>
    <rect x="300" y="220" width="16" height="16"/><rect x="340" y="220" width="16" height="16"/><rect x="380" y="220" width="16" height="16"/>
    <rect x="780" y="190" width="16" height="16"/><rect x="820" y="190" width="16" height="16"/><rect x="860" y="190" width="16" height="16"/>
  </g>
</svg>

